# xmcd
#
# Track frame offsets:
#	150
#	22408
#	35415
#	59799
#	78536
#	97325
#	110524
#	128446
#	143075
#	163787
#	175969
#
# Disc length: 2704 seconds
#
# Revision: 1
# Processed by: cddbd v1.5.1PL2 Copyright (c) Steve Scherf et al.
# Submitted via: EasyCDDAExtractor 7.1.0.1
#
DISCID=a00a8e0b
DTITLE=Neil Bradley Owen - Front Porch Prose
DYEAR=2004
DGENRE=Blues
TTITLE0=Baby Blues (Love Style)
TTITLE1=I Survive
TTITLE2=Goin' Fishing
TTITLE3=Close Your Eyes and Pray
TTITLE4=Mekong Delta
TTITLE5=I Don't Feel A Thing
TTITLE6=Never Be The Same
TTITLE7=Don't Wake Me Up Sunshine
TTITLE8=It's About You
TTITLE9=That's The Way It Is With Us
TTITLE10=Train To Catch This Morning
EXTD=
EXTT0=
EXTT1=
EXTT2=
EXTT3=
EXTT4=
EXTT5=
EXTT6=
EXTT7=
EXTT8=
EXTT9=
EXTT10=
PLAYORDER=
